<svg xmlns="http://www.w3.org/2000/svg" version="1.0" preserveAspectRatio="xMidYMid meet" viewBox="36.38 101.48 791.07 891.17">

<g transform="translate(0.000000,1024.000000) scale(0.100000,-0.100000)" fill="#000000" stroke="none">
<path d="M4745 9218 c-260 -29 -596 -129 -805 -240 -202 -107 -371 -228 -504 -363 -171 -173 -312 -392 -361 -560 -15 -50 -15 -50 -79 -68 -165 -48 -294 -173 -375 -363 -44 -105 -44 -148 0 -198 32 -37 80 -53 118 -41 55 17 87 71 121 203 7 27 27 61 52 88 40 43 65 57 55 30 -3 -7 -17 -66 -31 -129 -69 -308 -95 -652 -77 -1027 9 -185 18 -294 46 -600 26 -284 35 -436 35 -615 0 -252 -12 -374 -51 -530 -63 -248 -169 -405 -437 -647 -553 -499 -758 -712 -1003 -1040 -111 -148 -213 -305 -311 -473 -71 -123 -110 -197 -373 -710 -122 -237 -220 -416 -331 -601 -41 -69 -73 -132 -70 -140 11 -29 41 -13 75 39 39 59 211 346 211 352 0 2 15 30 34 62 18 32 131 245 251 473 233 445 299 563 408 735 66 102 242 344 284 390 10 11 47 54 82 95 172 200 410 434 736 722 333 293 452 471 521 778 57 255 57 527 -1 1170 -8 91 -17 190 -19 220 -27 311 -28 806 -3 1013 23 183 24 191 58 352 16 76 33 143 38 148 30 30 425 95 715 117 236 18 316 11 331 -28 3 -8 10 -69 15 -136 26 -310 75 -467 191 -612 130 -159 277 -217 554 -218 131 0 162 4 249 27 128 34 214 75 301 142 92 70 190 193 215 270 8 24 32 44 112 92 57 34 142 80 189 102 l86 40 109 -48 c215 -96 403 -149 825 -236 406 -83 534 -120 712 -205 273 -130 474 -348 536 -581 37 -143 55 -139 -148 -38 -256 128 -454 195 -691 234 -96 16 -365 42 -700 70 -242 20 -290 24 -380 35 -298 38 -575 49 -700 29 -30 -5 -73 -11 -95 -14 -59 -9 -213 -54 -254 -75 -20 -10 -49 -30 -64 -44 -32 -30 -30 -59 7 -88 34 -28 233 -134 321 -171 149 -63 197 -71 430 -72 116 0 253 3 305 8 l96 7 -39 -81 c-64 -135 -82 -289 -53 -454 31 -173 83 -294 301 -700 454 -846 652 -1408 717 -2040 46 -450 -10 -972 -149 -1384 -153 -456 -393 -847 -730 -1191 -138 -140 -165 -180 -124 -180 25 0 269 235 379 365 306 363 540 864 642 1375 50 254 79 680 60 890 -4 47 -11 126 -15 175 -6 78 -55 372 -71 430 -11 35 83 -65 145 -155 117 -171 215 -381 247 -533 25 -116 25 -509 0 -647 -108 -598 -432 -1226 -899 -1743 -48 -54 -86 -104 -84 -110 2 -7 12 -13 23 -15 34 -5 231 209 371 403 349 484 563 953 642 1405 46 264 51 513 15 708 -26 138 -132 375 -236 524 -64 92 -180 222 -219 245 -17 10 -31 29 -35 47 -13 60 -127 403 -179 536 -106 273 -234 541 -447 938 -182 340 -233 451 -268 585 -24 96 -30 138 -30 225 1 133 10 173 67 292 25 52 46 96 47 97 1 2 46 8 286 38 137 18 530 20 747 5 82 -6 252 -14 378 -18 l230 -8 92 -52 c160 -90 171 -85 149 65 -22 147 -56 236 -136 353 -45 65 -190 209 -274 270 -151 110 -357 193 -629 254 l-27 6 19 38 c22 44 40 106 51 182 44 293 58 416 60 517 0 23 10 45 34 70 62 70 68 100 37 169 -12 27 -30 46 -52 56 -56 26 -284 43 -559 42 l-256 -1 -36 66 c-140 256 -408 508 -671 631 -283 133 -494 181 -817 185 -102 1 -221 -2 -265 -7z m430 -68 c437 -34 841 -234 1099 -541 73 -86 192 -267 182 -276 -2 -2 -68 -17 -147 -33 -79 -16 -209 -50 -289 -75 -192 -61 -255 -66 -415 -30 -333 73 -861 83 -1320 24 -227 -29 -278 -39 -325 -65 -25 -13 -102 -27 -370 -64 -269 -37 -351 -50 -406 -64 -29 -8 -54 -11 -54 -8 0 14 42 116 72 175 78 156 250 364 398 482 442 352 1001 520 1575 475z m2005 -894 c145 -17 160 -24 160 -77 0 -17 -9 -32 -25 -43 -52 -34 -58 -57 -66 -230 -8 -168 -11 -199 -34 -331 -7 -44 -16 -104 -20 -134 -5 -48 -32 -116 -56 -147 -6 -8 -26 -8 -66 -1 -32 5 -60 11 -62 13 -3 3 9 19 27 37 43 45 58 86 79 218 21 139 24 412 5 477 -18 59 -65 109 -115 123 -69 19 -460 5 -580 -21 -211 -45 -324 -96 -348 -158 -21 -52 -18 -116 10 -222 15 -58 37 -126 49 -152 14 -32 17 -48 9 -48 -20 1 -91 36 -104 51 -7 8 -25 63 -41 123 -17 60 -38 117 -49 127 -27 28 -130 42 -201 29 -105 -19 -123 -47 -142 -219 -35 -323 -99 -471 -254 -588 -85 -64 -172 -101 -303 -129 -204 -43 -406 -28 -549 41 -138 67 -246 214 -293 400 -24 96 -51 285 -51 358 0 112 -44 177 -120 177 -34 0 -38 3 -44 31 -13 64 -7 128 12 138 65 35 773 99 941 86 31 -3 124 -7 206 -10 174 -5 263 -16 434 -51 181 -38 260 -33 458 34 156 52 291 85 398 98 33 4 85 10 115 15 83 12 467 2 620 -15z m-3255 -251 l0 -75 -60 0 c-147 0 -535 -44 -672 -76 -88 -20 -229 -72 -272 -99 -53 -33 -96 -85 -116 -141 -55 -149 -60 -158 -89 -169 -24 -8 -31 -6 -48 15 -28 35 -20 89 31 195 50 102 93 152 170 199 99 60 196 87 481 133 58 9 204 33 325 53 121 21 227 38 235 39 12 1 15 -14 15 -74z m1952 -181 c24 -7 33 -26 62 -134 11 -41 23 -83 26 -92 5 -12 2 -18 -7 -18 -22 0 -172 -75 -247 -124 l-67 -43 17 90 c10 49 20 132 24 183 4 51 13 101 19 110 19 26 120 42 173 28z m198 -1100 c61 -8 142 -17 180 -20 39 -3 73 -8 76 -10 9 -5 191 -22 469 -44 304 -24 469 -43 607 -70 122 -24 312 -78 403 -115 l65 -26 -166 5 c-92 3 -222 11 -290 17 -184 16 -742 17 -802 1 -47 -12 -161 -26 -482 -58 -186 -19 -398 -14 -496 11 -56 14 -199 80 -311 143 -20 12 -56 31 -79 42 l-42 22 29 19 c121 81 532 121 839 83z"/>
<path d="M4745 8080 c-229 -20 -348 -50 -412 -105 -54 -46 -68 -107 -59 -245 19 -263 81 -454 188 -576 97 -110 271 -145 540 -109 147 19 197 45 293 147 41 45 87 101 101 125 92 157 154 494 111 596 -40 93 -88 128 -210 153 -88 18 -414 26 -552 14z"/>
<path d="M2905 3800 c-245 -31 -524 -149 -822 -347 -164 -108 -203 -139 -203 -159 0 -34 35 -22 142 49 161 107 397 236 524 286 217 86 398 117 623 108 275 -11 470 -93 637 -269 111 -117 178 -227 208 -344 52 -202 64 -512 27 -699 -46 -232 -184 -567 -334 -812 -244 -401 -721 -880 -1182 -1189 -110 -74 -132 -98 -100 -110 29 -11 307 170 485 315 215 176 555 528 710 736 212 285 389 650 472 975 31 122 32 131 32 345 1 381 -39 534 -192 738 -159 211 -334 317 -617 373 -53 10 -338 13 -410 4z"/>
</g>
</svg>